<svg width="377.8210399101077" height="251.00000000000006" xmlns="http://www.w3.org/2000/svg" preserveAspectRatio="xMidYMid meet" class="css-116ckqy">
 <g>
  <title>Layer 1</title>
  <g id="SvgjsG2395" featurekey="JiLV9t-0" transform="matrix(1.91853 0 0 1.81667 113.417 -49.3535)" fill="#111111">
   <g fill="#111111" id="svg_1" xmlns="http://www.w3.org/2000/svg">
    <g fill="#111111" id="svg_2">
     <path d="m84.68752,100.26087c-0.573,-0.739 -1.21,-1.436 -1.87,-2.101c-0.919,-0.926 -1.879,-1.812 -2.823,-2.712c-1.123,-1.07 -2.141,-2.21 -2.711,-3.694c-0.506,-1.318 -0.679,-2.616 -0.122,-3.973c0.692,-1.684 0.687,-3.396 -0.186,-5.004c-0.622,-1.144 -1.346,-2.248 -2.136,-3.284c-1.546,-2.026 -2.968,-4.126 -4.253,-6.328c-0.749,-1.283 -1.603,-2.509 -2.472,-3.717c-0.405,-0.562 -0.929,-1.049 -1.447,-1.517c-0.801,-0.725 -0.84,-0.81 -0.241,-1.743c0.154,-0.24 0.378,-0.434 0.553,-0.662c0.298,-0.386 0.645,-0.708 1.044,-0.995c0.716,-0.515 1.35,-1.153 2.098,-1.61c0.744,-0.455 1.521,-0.925 2.491,-0.77c0.406,0.065 0.747,0.114 0.876,0.573c0.027,0.094 0.159,0.22 0.244,0.221c0.095,0.001 0.232,-0.101 0.282,-0.195c0.274,-0.516 0.051,-1.536 -0.451,-1.825c-0.284,-0.163 -0.651,-0.226 -0.985,-0.246c-0.482,-0.029 -1.029,-0.114 -1.441,0.068c-0.863,0.381 -1.718,0.839 -2.46,1.416c-0.949,0.737 -1.805,1.6 -2.657,2.454c-0.423,0.424 -0.746,0.947 -1.148,1.468c-0.757,-0.65 -1.493,-1.236 -2.175,-1.88c-0.922,-0.872 -1.806,-1.783 -2.694,-2.691c-0.113,-0.116 -0.203,-0.307 -0.208,-0.466c-0.023,-0.717 -0.309,-0.979 -1.022,-0.9c-0.172,0.019 -0.378,0.063 -0.518,-0.006c-1.599,-0.784 -3.251,-1.405 -5.021,-1.654c-0.255,-0.036 -0.629,0 -0.771,0.16c-0.137,0.155 -0.046,0.512 -0.056,0.795c1.882,-0.157 3.443,0.465 5.009,1.236c-0.862,0.677 -1.65,1.306 -2.449,1.922c-1.166,0.898 -1.8,2.187 -2.495,3.423c-0.556,0.988 -1.062,2.005 -1.553,3.028c-0.558,1.163 -1.125,2.326 -1.596,3.524c-0.46,1.169 -0.801,2.386 -1.201,3.579c-0.327,0.973 -0.704,1.932 -0.986,2.918c-0.333,1.166 -0.63,2.338 -1.286,3.379c-0.086,0.137 -0.156,0.29 -0.207,0.444c-0.246,0.732 -0.387,1.519 -0.746,2.189c-0.621,1.158 -0.678,2.522 -1.455,3.625c-0.351,0.498 -0.453,1.165 -0.728,1.726c-0.334,0.682 -0.764,1.316 -1.096,1.999c-0.914,1.879 -1.99,3.627 -3.423,5.179c-1.076,1.166 -2.356,1.941 -3.753,2.6c-1.573,0.741 -3.288,0.936 -4.957,1.306c-0.59,0.13 -1.203,0.155 -1.849,0.233c0.027,-0.199 0.033,-0.306 0.058,-0.408c0.354,-1.466 0.775,-2.92 1.052,-4.401c0.374,-1.998 0.671,-4.013 0.942,-6.029c0.257,-1.91 0.457,-3.828 0.646,-5.746c0.219,-2.223 0.306,-4.463 0.62,-6.671c0.352,-2.475 0.848,-4.933 1.368,-7.38c0.463,-2.179 1.199,-4.296 2.512,-6.106c1.302,-1.795 2.806,-3.442 4.198,-5.173c0.422,-0.525 0.793,-1.042 1.593,-0.863c0.06,0.013 0.258,-0.296 0.274,-0.466c0.014,-0.146 -0.14,-0.308 -0.232,-0.485c0.26,-0.222 0.489,-0.457 0.754,-0.639c1.138,-0.778 2.331,-1.286 3.729,-0.692c0.425,0.18 0.856,0.348 1.294,0.493c0.084,0.028 0.3,-0.071 0.304,-0.121c0.015,-0.243 0.07,-0.621 -0.057,-0.711c-0.42,-0.294 -0.906,-0.502 -1.38,-0.71c-0.84,-0.368 -1.674,-0.337 -2.547,-0.035c-1.236,0.427 -2.11,1.316 -3.031,2.163c-0.149,0.137 -0.359,0.307 -0.533,0.299c-1.063,-0.054 -2.123,-0.188 -3.187,-0.23c-0.853,-0.034 -1.729,-0.473 -2.568,0.092c-0.062,0.042 -0.199,-0.022 -0.299,-0.046c-0.201,-0.047 -0.407,-0.162 -0.6,-0.142c-1.64,0.169 -3.279,0.354 -4.915,0.556c-0.354,0.044 -0.693,0.205 -1.047,0.256c-0.732,0.105 -1.487,0.101 -2.202,0.268c-2.561,0.6 -5.077,1.35 -7.396,2.626c-1.061,0.583 -2.096,1.215 -3.124,1.855c-1.594,0.991 -2.796,2.379 -3.762,3.958c-0.486,0.794 -0.848,1.669 -1.215,2.528c-0.352,0.823 -0.674,1.663 -0.941,2.517c-0.269,0.86 -0.486,1.739 -0.665,2.623c-0.186,0.914 -0.41,1.842 -0.419,2.765c-0.013,1.339 0.191,2.678 0.231,4.018c0.046,1.565 0.452,3.053 0.984,4.489c0.57,1.538 1.246,3.053 2.349,4.315c0.738,0.845 1.441,1.728 2.242,2.509c1.25,1.219 2.636,2.284 4.204,3.07c0.738,0.37 1.532,0.63 2.304,0.93c0.693,0.269 1.424,0.487 1.782,1.229c0.192,0.398 -0.006,0.805 -0.386,0.826c-2.136,0.113 -4.186,0.593 -6.244,1.193c-3.036,0.885 -5.577,2.537 -7.909,4.566c-2.39,2.079 -4.528,4.417 -6.494,6.892c-1.587,1.998 -2.673,4.202 -2.576,6.907c0.066,1.848 0.62,3.497 1.399,5.102c0.383,0.788 0.93,1.497 1.419,2.231c0.139,0.208 0.314,0.412 0.516,0.556c0.811,0.572 1.22,1.547 2.136,2.033c0.589,0.313 1.029,0.931 1.631,1.191c1.438,0.623 2.921,1.151 4.409,1.645c0.769,0.255 1.581,0.426 2.387,0.509c1.112,0.115 2.242,0.053 3.353,0.172c1.603,0.171 3.169,0 4.688,-0.456c1.278,-0.383 2.552,-0.841 3.744,-1.434c1.096,-0.545 2.133,-1.246 3.098,-2.003c0.937,-0.734 1.857,-1.543 2.592,-2.471c0.983,-1.242 1.769,-2.639 2.668,-3.95c0.172,-0.252 0.441,-0.516 0.72,-0.604c1.786,-0.563 3.393,-1.439 4.8,-2.668c0.353,-0.308 0.683,-0.663 0.945,-1.049c1.159,-1.704 1.585,-3.582 1.133,-5.606c-0.432,-1.933 -0.831,-3.898 -2.194,-5.454c-0.483,-0.552 -0.987,-1.215 -1.828,-1.107c-0.682,0.087 -1.355,0.324 -2.005,0.568c-0.488,0.183 -0.472,0.462 -0.061,0.795c0.181,0.146 0.401,0.349 0.433,0.552c0.087,0.553 0.072,1.121 0.118,1.682c0.03,0.36 -0.028,0.826 0.171,1.055c0.487,0.56 0.508,1.177 0.453,1.827c-0.089,1.044 -0.104,2.111 -0.349,3.12c-0.237,0.974 -0.732,1.884 -1.101,2.827c-0.17,0.435 -0.255,0.913 -0.483,1.312c-0.243,0.426 -0.533,0.956 -0.938,1.132c-0.927,0.404 -1.926,0.66 -2.913,0.905c-2.35,0.582 -4.72,1.086 -7.146,1.187c-1.303,0.054 -2.615,0.026 -3.918,-0.049c-1.581,-0.091 -3.089,-0.521 -4.565,-1.106c-1.713,-0.679 -3.341,-1.472 -4.708,-2.741c-1.412,-1.311 -2.021,-2.986 -2.009,-4.835c0.011,-1.733 0.482,-3.342 1.707,-4.718c1.131,-1.271 2.392,-2.265 4.026,-2.734c1.329,-0.381 2.673,-0.708 4.013,-1.046c0.859,-0.216 1.152,0.083 0.963,0.955c-0.365,1.693 0.741,3.918 2.345,4.65c0.457,0.209 0.957,0.322 1.438,0.478c0.383,0.124 0.762,0.324 1.151,0.351c0.515,0.034 1.04,-0.057 1.558,-0.115c0.844,-0.093 1.62,-0.404 2.125,-1.087c0.742,-1.004 1.458,-2.039 2.062,-3.129c0.471,-0.85 0.694,-1.797 0.065,-2.729c-0.132,-0.196 -0.168,-0.458 -0.224,-0.618c1.268,-0.239 2.504,-0.429 3.718,-0.711c2.259,-0.525 4.346,-1.446 6.209,-2.847c1.802,-1.355 3.136,-3.104 4.223,-5.051c1.825,-3.269 3.491,-6.604 4.64,-10.191c0.786,-2.453 1.774,-4.841 2.661,-7.263c0.694,-1.894 1.29,-3.828 2.077,-5.681c0.843,-1.986 1.885,-3.887 2.792,-5.848c0.993,-2.148 2.689,-3.572 4.688,-4.698c0.125,-0.071 0.384,-0.042 0.507,0.045c0.37,0.26 0.727,0.549 1.048,0.868c1.075,1.071 2.132,2.16 3.196,3.242c0.429,0.436 0.854,0.875 1.285,1.309c0.229,0.231 0.356,0.457 0.089,0.753c-0.08,0.089 -0.105,0.229 -0.148,0.348c-0.469,1.302 -0.941,2.603 -1.403,3.907c-0.351,0.991 -0.694,1.984 -1.031,2.98c-0.307,0.907 -0.615,1.814 -0.894,2.73c-0.265,0.869 -0.461,1.759 -0.744,2.622c-0.466,1.423 -0.991,2.826 -1.462,4.248c-0.168,0.506 -0.197,1.062 -0.388,1.557c-0.248,0.643 -0.607,1.242 -0.898,1.87c-0.911,1.97 -1.78,3.959 -3.027,5.753c-0.812,1.169 -1.443,2.461 -2.515,3.451c-0.671,0.62 -1.236,1.354 -1.887,1.997c-0.574,0.568 -1.176,1.114 -1.812,1.61c-0.751,0.586 -1.512,1.181 -2.341,1.642c-1.663,0.924 -3.497,1.34 -5.382,1.459c-1.36,0.086 -2.719,0.043 -3.964,-0.667c-0.517,-0.295 -1.14,0.062 -1.224,0.65c-0.074,0.516 0.284,1.002 0.885,1.217c1.477,0.527 2.991,0.561 4.524,0.346c0.728,-0.102 1.454,-0.216 2.25,-0.334c-0.064,0.168 -0.079,0.259 -0.128,0.327c-0.615,0.865 -1.164,1.754 -1.227,2.859c-0.047,0.826 -0.404,1.713 0.511,2.326c0.027,0.018 0.057,0.062 0.054,0.091c-0.093,0.792 0.698,1.063 0.994,1.636c0.223,0.432 0.787,0.676 1.163,1.042c1.255,1.218 2.754,1.871 4.491,1.956c0.637,0.031 1.236,-0.143 1.665,-0.666c0.345,-0.421 0.722,-0.828 0.991,-1.296c0.303,-0.528 0.473,-1.127 0.017,-1.677c-0.138,-0.166 -0.363,-0.335 -0.558,-0.347c-0.11,-0.007 -0.293,0.289 -0.347,0.476c-0.099,0.347 -0.157,0.712 -0.179,1.073c-0.053,0.842 -0.64,1.259 -1.285,1.584c-1.099,0.554 -2.748,0.013 -3.379,-1.169c-0.197,-0.37 -0.424,-0.723 -0.623,-1.092c-0.812,-1.507 -1.212,-3.056 -0.566,-4.748c0.537,-1.408 1.502,-2.421 2.798,-3.122c1.082,-0.586 2.208,-1.09 3.294,-1.669c1.256,-0.67 1.803,-2.105 1.32,-3.445c-0.112,-0.311 -0.056,-0.481 0.157,-0.713c0.513,-0.562 0.999,-1.15 1.469,-1.748c1.271,-1.618 2.267,-3.408 3.289,-5.188c1.505,-2.62 2.436,-5.47 3.46,-8.28c0.725,-1.992 1.238,-4.06 1.894,-6.078c0.706,-2.172 1.452,-4.332 2.214,-6.485c0.305,-0.862 0.7,-1.693 1.086,-2.612c0.463,0.46 0.833,0.854 1.23,1.216c0.965,0.882 1.616,1.989 2.269,3.098c0.768,1.305 1.537,2.611 2.319,3.908c0.188,0.313 0.426,0.596 0.645,0.89c0.495,0.663 0.934,1.38 1.507,1.965c0.416,0.424 0.843,0.732 0.788,1.427c-0.022,0.276 0.235,0.588 0.4,0.861c0.169,0.278 0.419,0.51 0.567,0.797c0.313,0.61 0.532,1.272 0.884,1.856c0.396,0.657 0.425,1.43 0.182,1.987c-0.516,1.181 -0.57,2.4 -0.637,3.622c-0.028,0.506 0.212,1.035 0.369,1.543c0.293,0.951 0.601,1.894 1.313,2.648c0.366,0.388 0.751,0.798 0.98,1.269c0.522,1.078 1.579,1.636 2.295,2.52c0.304,0.375 0.715,0.662 1.052,1.013c0.545,0.569 1.063,1.163 1.604,1.735c0.345,0.365 0.327,1.062 -0.021,1.356c-1.232,1.043 -2.486,2.064 -3.666,3.164c-1.145,1.067 -1.019,2.549 0.212,3.526c0.804,0.638 0.841,1.341 0.085,2.032c-0.28,0.256 -0.317,0.484 -0.101,0.804c0.252,0.375 0.52,0.759 0.665,1.18c0.225,0.651 -0.478,1.368 -1.155,1.237c-0.939,-0.181 -1.687,0.055 -2.067,0.695c-0.528,0.889 -0.747,1.841 -0.032,2.658c0.38,0.434 0.691,0.936 0.98,1.438c0.339,0.587 0.11,1.296 -0.482,1.649c-0.344,0.205 -0.671,0.453 -1.039,0.599c-0.74,0.293 -1.489,0.697 -2.258,0.759c-2.235,0.18 -4.411,-0.279 -6.53,-0.969c-1.1,-0.358 -2.158,-0.847 -3.263,-1.187c-1.562,-0.48 -3.148,-0.883 -4.728,-1.302c-0.288,-0.076 -0.638,-0.178 -0.887,-0.082c-0.466,0.179 -0.887,0.483 -1.314,0.755c-0.691,0.44 -0.886,1.175 -1.185,1.883c-0.463,1.095 -1.087,2.121 -1.608,3.193c-0.876,1.803 -1.754,3.606 -2.576,5.434c-0.615,1.37 -1.153,2.775 -1.704,4.173c-0.279,0.709 -0.501,1.44 -0.771,2.153c-0.048,0.127 -0.207,0.209 -0.306,0.32c-0.151,0.17 -0.38,0.327 -0.424,0.524c-0.105,0.467 0.276,0.795 1.077,0.974c0.457,0.102 0.583,-0.228 0.705,-0.574c0.578,-1.642 1.121,-3.299 1.764,-4.916c0.441,-1.11 1.028,-2.161 1.544,-3.241c0.438,-0.915 0.881,-1.827 1.299,-2.751c0.8,-1.764 1.58,-3.537 2.381,-5.301c0.1,-0.221 0.239,-0.453 0.423,-0.604c0.759,-0.622 1.588,-0.923 2.599,-0.622c1.627,0.485 3.286,0.869 4.905,1.376c1.078,0.338 2.099,0.852 3.168,1.221c1.132,0.391 2.293,0.593 3.514,0.606c1.424,0.015 2.842,0.135 4.168,-0.498c0.713,-0.341 1.503,-0.655 2.044,-1.195c1.103,-1.101 0.837,-3.022 -0.419,-3.986c-0.514,-0.394 -0.597,-0.838 -0.278,-1.494c0.3,-0.617 0.506,-0.658 1.213,-0.56c0.461,0.064 1.063,0.101 1.392,-0.138c0.423,-0.307 0.665,-0.887 0.924,-1.382c0.092,-0.175 0.071,-0.473 -0.012,-0.665c-0.221,-0.511 -0.504,-0.996 -0.789,-1.543c0.694,-0.306 0.8,-1.006 0.91,-1.722c0.106,-0.694 -0.037,-1.16 -0.655,-1.517c-1.005,-0.581 -0.888,-1.243 -0.556,-1.972c0.559,-1.229 1.607,-2.012 2.669,-2.741c0.776,-0.533 1.419,-1.151 1.772,-2.011c0.112,-0.273 0.082,-0.732 -0.085,-0.946zm-50.914,16.158c0.849,-1.981 1.037,-4.045 0.759,-6.154c-0.115,-0.873 -0.36,-1.73 -0.56,-2.591c-0.14,-0.6 0.145,-1.198 0.708,-1.433c0.345,-0.144 0.939,0.148 1.229,0.579c0.371,0.551 0.846,1.051 1.124,1.644c0.545,1.167 1.053,2.37 1.104,3.683c0.034,0.878 0.077,1.781 -0.082,2.636c-0.217,1.169 -0.918,2.101 -1.841,2.868c-1.018,0.847 -2.184,1.421 -3.386,1.939c-0.112,0.048 -0.241,0.055 -0.388,0.087c0.459,-1.124 0.879,-2.199 1.333,-3.258zm-13.175,-8.018c-0.337,-0.076 -0.616,-0.478 -0.879,-0.775c-0.113,-0.129 -0.12,-0.351 -0.176,-0.531c-0.052,-0.006 -0.103,-0.011 -0.155,-0.017c-0.152,0.369 -0.383,0.727 -0.435,1.109c-0.052,0.377 0.077,0.778 0.144,1.303c-0.216,-0.074 -0.495,-0.081 -0.611,-0.223c-0.889,-1.083 -1.38,-2.296 -1.048,-3.726c0.028,-0.122 0.216,-0.204 0.252,-0.327c0.067,-0.227 0.17,-0.518 0.081,-0.694c-0.07,-0.14 -0.415,-0.229 -0.618,-0.2c-1.673,0.235 -3.362,0.409 -5.004,0.786c-1.907,0.437 -3.509,1.396 -4.846,2.93c-0.727,0.833 -1.17,1.747 -1.639,2.681c-0.186,0.371 -0.23,0.829 -0.275,1.254c-0.126,1.166 -0.264,2.328 0.228,3.468c0.218,0.505 0.2,1.129 0.473,1.59c0.534,0.904 1.083,1.825 1.974,2.453c1.046,0.739 2.026,1.616 3.163,2.171c1.518,0.741 3.112,1.382 4.822,1.597c0.956,0.12 1.915,0.278 2.875,0.29c1.778,0.022 3.564,0.029 5.317,-0.351c1.991,-0.431 3.976,-0.891 5.964,-1.334c0.116,-0.026 0.239,-0.019 0.477,-0.036c-0.208,0.375 -0.344,0.68 -0.531,0.949c-1.018,1.459 -2.053,2.913 -3.434,4.054c-1.816,1.5 -3.745,2.813 -5.995,3.624c-2.904,1.047 -5.861,1.089 -8.875,0.718c-1.887,-0.232 -3.661,-0.799 -5.442,-1.44c-2.319,-0.835 -4.06,-2.402 -5.577,-4.21c-1.116,-1.329 -1.998,-2.863 -2.445,-4.588c-0.64,-2.469 -0.28,-4.789 1.206,-6.854c0.972,-1.35 2.067,-2.618 3.171,-3.865c1.176,-1.328 2.327,-2.708 3.674,-3.847c1.54,-1.302 3.096,-2.595 4.939,-3.536c2.42,-1.235 4.959,-1.971 7.607,-2.414c1.153,-0.193 2.32,-0.223 3.458,0.089c0.305,0.083 0.541,0.392 0.833,0.553c0.471,0.259 0.076,0.576 0.085,0.862c0.054,1.843 -0.619,3.523 -1.203,5.22c-0.11,0.319 -0.263,0.681 -0.511,0.88c-0.286,0.226 -0.735,0.457 -1.044,0.387zm5.916,-1.592c-0.635,0.848 -1.287,1.694 -1.813,2.609c-0.333,0.579 -0.844,0.687 -1.362,0.855c-0.281,0.091 -0.588,0.102 -0.883,0.149c-0.028,-0.044 -0.056,-0.088 -0.084,-0.131c2.214,-1.268 3.389,-3.333 4.372,-5.571c0.09,0.732 0.262,1.432 -0.23,2.089zm-0.102,-3.234c-0.638,2.014 -1.732,3.717 -3.564,4.864c-0.257,0.161 -0.541,0.278 -0.932,0.476c0.343,-0.908 0.658,-1.687 0.934,-2.479c0.733,-2.108 1.112,-4.276 1.205,-6.51c0.12,-2.894 -0.185,-5.741 -0.749,-8.57c-0.33,-1.659 -0.615,-3.328 -0.979,-4.98c-0.443,-2.007 -0.966,-3.996 -1.424,-6c-0.415,-1.813 -0.747,-3.657 -0.609,-5.514l3.222,-4.558c0.071,0.05 0.141,0.099 0.212,0.149c0.017,-0.312 0.153,-0.691 0.024,-0.922c-0.218,-0.391 -0.604,-0.167 -0.915,-0.01c-1.109,0.559 -1.818,1.471 -2.297,2.592c-0.855,2 -0.978,4.083 -0.606,6.191c0.373,2.111 0.821,4.209 1.268,6.307c0.385,1.804 0.848,3.592 1.216,5.399c0.352,1.728 0.691,3.464 0.913,5.213c0.183,1.448 0.192,2.919 0.265,4.38c0.009,0.188 -0.056,0.38 -0.078,0.513c-0.638,-0.383 -1.257,-0.755 -1.907,-1.145c0.284,-1.206 -0.459,-2.341 -1.912,-2.822c-1,-0.332 -2.044,-0.596 -2.963,-1.087c-0.983,-0.525 -1.895,-1.22 -2.746,-1.948c-1.275,-1.09 -2.544,-2.202 -3.519,-3.593c-1.206,-1.72 -2.07,-3.596 -2.469,-5.661c-0.46,-2.381 -0.768,-4.795 -0.472,-7.212c0.335,-2.734 1.075,-5.388 2.307,-7.861c0.764,-1.534 1.848,-2.853 3.147,-4.005c1.91,-1.695 4.154,-2.811 6.473,-3.761c1.49,-0.61 3.062,-1.06 4.635,-1.414c1.608,-0.362 3.262,-0.518 4.895,-0.765l6.395,-0.41c1.112,0.021 2.222,0.212 3.332,0.327c0.033,0.075 0.066,0.149 0.099,0.224c-0.28,0.365 -0.542,0.745 -0.843,1.092c-1.054,1.213 -2.196,2.359 -3.158,3.64c-0.65,0.865 -1.06,1.912 -1.567,2.883c-0.19,0.365 -0.394,0.732 -0.518,1.122c-0.404,1.274 -0.763,2.563 -1.159,3.84c-0.526,1.702 -0.846,3.435 -0.982,5.214c-0.094,1.223 -0.318,2.436 -0.476,3.655c-0.039,0.305 -0.038,0.616 -0.069,0.922c-0.149,1.477 -0.31,2.954 -0.449,4.432c-0.044,0.469 -0.004,0.946 -0.059,1.413c-0.133,1.128 -0.306,2.252 -0.452,3.379c-0.092,0.716 -0.152,1.437 -0.247,2.153c-0.307,2.32 -0.661,4.631 -1.302,6.887c-0.371,1.318 -0.705,2.652 -1.12,3.96zm17.869,8.787c-0.942,-0.837 -1.947,-1.668 -2.066,-2.975c-0.142,-1.56 0.656,-2.766 1.879,-3.716c-1.118,2.273 -0.941,4.478 0.187,6.691zm0.557,-7.442c-0.326,-0.471 -0.293,-0.505 0.795,-0.834c-0.316,0.332 -0.551,0.579 -0.795,0.834zm5.692,-3.452c-0.895,0.553 -1.869,0.976 -2.868,1.342c1.184,-1.124 2.368,-2.247 3.568,-3.385c0.286,0.745 0.056,1.576 -0.7,2.043z" fill="#111111" id="svg_3"/>
     <path d="m67.95252,83.75987c-0.541,-0.16 -1.081,-0.323 -1.62,-0.488c-0.826,-0.252 -1.505,0.088 -2.13,0.559c-1.175,0.887 -2.331,1.799 -3.495,2.701c-0.11,0.085 -0.216,0.175 -0.326,0.265c0.24,0.388 0.511,0.225 0.78,0.119c1.39,-0.546 2.745,-1.158 3.949,-2.058c0.349,-0.261 0.686,-0.237 1.074,-0.073c0.804,0.34 1.612,0.681 2.442,0.946c0.795,0.254 1.618,0.421 2.432,0.611c0.672,0.158 1.347,0.309 2.027,0.426c0.135,0.023 0.373,-0.08 0.433,-0.194c0.157,-0.298 0.243,-0.635 0.367,-0.983c-0.477,-0.17 -0.897,-0.339 -1.33,-0.469c-1.532,-0.462 -3.069,-0.909 -4.603,-1.362z" fill="#111111" id="svg_4"/>
     <path d="m72.76052,90.33387c-0.635,0.734 -1.402,1.177 -2.328,1.367c-2.195,0.45 -4.302,0.273 -6.295,-0.816c-0.363,-0.198 -0.721,-0.41 -1.102,-0.566c-0.301,-0.123 -0.668,-0.129 -0.785,0.244c-0.1,0.32 -0.216,0.827 -0.055,0.999c0.42,0.451 0.965,0.804 1.504,1.123c0.66,0.39 1.392,0.581 2.172,0.596c1.23,0.024 2.46,0.083 3.689,0.122c0.087,0.003 0.176,-0.042 0.265,-0.064c1.133,-0.291 2.104,-0.861 2.972,-1.646c0.652,-0.59 0.682,-0.644 -0.037,-1.359z" fill="#111111" id="svg_5"/>
     <path d="m54.55152,101.79387c-0.151,0.381 -0.047,0.542 0.334,0.603c0.426,0.067 0.878,0.084 1.267,0.245c0.646,0.268 1.285,0.582 1.865,0.969c1.08,0.721 2.24,1.235 3.483,1.581c0.304,0.085 0.606,0.177 0.91,0.265c0.156,-0.128 0.344,-0.214 0.342,-0.295c-0.003,-0.136 -0.095,-0.322 -0.208,-0.393c-0.32,-0.202 -0.675,-0.349 -1.009,-0.533c-1.815,-1.001 -3.615,-2.032 -5.447,-3.002c-1.094,-0.579 -1.104,-0.533 -1.537,0.56z" fill="#111111" id="svg_6"/>
     <path d="m76.36652,103.77587c0.659,-0.055 1.31,-0.199 1.964,-0.309c0.005,0.014 0.01,0.029 0.015,0.043c0.251,-0.1 0.553,-0.145 0.737,-0.317c0.135,-0.127 0.226,-0.549 0.148,-0.614c-0.344,-0.289 -0.801,-0.742 -1.136,-0.683c-0.752,0.134 -1.472,0.505 -2.166,0.857c-0.161,0.082 -0.277,0.514 -0.206,0.71c0.06,0.167 0.427,0.331 0.644,0.313z" fill="#111111" id="svg_7"/>
     <path d="m75.66352,110.81187c0.443,0.599 1.129,0.767 1.854,0.723c0.593,-0.036 0.373,-0.621 0.586,-0.916c0.019,-0.026 0.013,-0.069 0.04,-0.244c-0.721,-0.048 -1.402,-0.122 -2.084,-0.124c-0.305,-0.001 -0.635,0.239 -0.396,0.561z" fill="#111111" id="svg_8"/>
     <path d="m73.81652,110.12387c0.233,-0.195 0.617,-0.36 0.662,-0.592c0.062,-0.316 -0.671,-0.808 -0.932,-0.675c-0.241,0.123 -0.574,0.337 -0.601,0.545c-0.046,0.362 0.503,0.731 0.871,0.722z" fill="#111111" id="svg_9"/>
    </g>
   </g>
  </g>
 </g>

</svg>